<?xml version="1.0" encoding="UTF-8" standalone="no"?>
<svg
   id="a"
   width="81.776001mm"
   height="57.1091mm"
   viewBox="0 0 231.82458 161.89122"
   version="1.1"
   sodipodi:docname="14-m2bnVhZ1Yu1SpMDHKeOh74uEZQNzTT"
   inkscape:export-filename="iit_logo_blanco.svg"
   inkscape:export-xdpi="96"
   inkscape:export-ydpi="96"
   xmlns:inkscape="http://www.inkscape.org/namespaces/inkscape"
   xmlns:sodipodi="http://sodipodi.sourceforge.net/DTD/sodipodi-0.dtd"
   xmlns="http://www.w3.org/2000/svg"
   xmlns:svg="http://www.w3.org/2000/svg">
  <defs
     id="defs37" />
  <sodipodi:namedview
     id="namedview37"
     pagecolor="#505050"
     bordercolor="#eeeeee"
     borderopacity="1"
     inkscape:showpageshadow="0"
     inkscape:pageopacity="0"
     inkscape:pagecheckerboard="0"
     inkscape:deskcolor="#505050"
     inkscape:document-units="mm" />
  <g
     id="g38"
     transform="matrix(1.1992374,0,0,1.1992374,0,-0.00337601)">
    <g
       id="g2"
       style="fill:#ffffff;fill-opacity:1">
      <path
         d="m 177.8,0 h -40 c 8.53,0 15.51,6.98 15.51,15.51 v 103.98 c 0,8.53 -6.98,15.51 -15.51,15.51 h 40 c 8.53,0 15.51,-6.98 15.51,-15.51 V 15.51 C 193.31,6.98 186.33,0 177.8,0 Z"
         fill="#0073b3"
         id="path1"
         style="fill:#005fb6;fill-opacity:1" />
      <path
         d="M 153.31,119.49 V 15.51 C 153.31,6.98 146.33,0 137.8,0 H 15.51 C 6.98,0 0,6.98 0,15.51 V 135 h 137.8 c 8.53,0 15.51,-6.98 15.51,-15.51 z"
         fill="#393b41"
         id="path2"
         style="fill:#ffffff;fill-opacity:1" />
    </g>
    <g
       id="g34">
      <path
         d="m 182.64,105.65 h -8.46 v 9.09 h 8.46 v 3.45 h -19.77 v -3.45 h 8.16 v -9.09 h -8.16 v -3.45 h 19.77 z"
         fill="#ffffff"
         id="path31" />
      <path
         d="m 182.64,88.41 c -5.1,2.91 -7.56,4.22 -7.8,4.93 v 1.6 h 7.8 v 3.45 h -19.77 v -5.07 c 0,-4.87 2.55,-6.7 5.58,-6.7 2.64,0 4.41,1.71 5.19,3.48 h 0.03 c 0.51,-0.85 3.93,-2.74 8.97,-5.62 z m -16.71,4.82 v 1.71 h 6.15 V 93.2 c 0,-1.77 -1.41,-3.11 -3.21,-3.11 -1.62,0 -2.94,1 -2.94,3.14 z"
         fill="#ffffff"
         id="path32" />
      <path
         d="m 182.64,82.34 h -19.77 v -3.45 h 19.77 z"
         fill="#ffffff"
         id="path33" />
      <path
         d="m 172.65,76.35 c -5.91,-0.48 -6,-5.35 -8.41,-5.35 -1.03,0 -1.42,0.76 -1.42,1.66 0,1.15 0.4,2.03 0.8,2.79 l -1.64,0.5 c -0.45,-0.91 -0.96,-2.13 -0.96,-3.69 0,-2.33 1.28,-3.44 3.01,-3.44 3.25,0 3.9,4.29 6.85,4.98 l -0.1,-5.08 h 1.87 z"
         fill="#ffffff"
         id="path34" />
    </g>
    <g
       id="g37"
       style="fill:#393b41;fill-opacity:1">
      <path
         d="m 37.68,27 c 0,3.11 -1.05,5.73 -3.16,7.85 -2.1,2.12 -4.67,3.18 -7.67,3.18 -3,0 -5.51,-1.06 -7.64,-3.18 -2.13,-2.12 -3.19,-4.73 -3.19,-7.85 0,-3.12 1.06,-5.6 3.19,-7.72 2.13,-2.12 4.67,-3.18 7.64,-3.18 2.97,0 5.57,1.06 7.67,3.18 2.11,2.12 3.16,4.69 3.16,7.72 z M 37.1,118.23 H 16.53 V 43.61 H 37.1 v 74.63 z"
         fill="#fff"
         id="path35"
         style="fill:#393b41;fill-opacity:1" />
      <path
         d="m 77.01,27 c 0,3.11 -1.05,5.73 -3.16,7.85 -2.11,2.12 -4.67,3.18 -7.67,3.18 -3,0 -5.52,-1.06 -7.64,-3.18 -2.13,-2.12 -3.19,-4.73 -3.19,-7.85 0,-3.12 1.07,-5.6 3.19,-7.72 2.12,-2.12 4.67,-3.18 7.64,-3.18 2.97,0 5.57,1.06 7.67,3.18 2.1,2.12 3.16,4.69 3.16,7.72 z m -0.58,91.23 H 55.86 V 43.61 h 20.57 v 74.63 z"
         fill="#fff"
         id="path36"
         style="fill:#393b41;fill-opacity:1" />
      <path
         d="m 136.96,56.51 h -19.6 v 38.26 c 0,3.89 0.65,6.74 1.93,8.56 1.29,1.82 3.78,2.72 7.48,2.72 1.76,0 3.46,-0.14 5.09,-0.42 1.63,-0.28 3.14,-0.64 4.51,-1.07 v 11.67 c -2.19,0.91 -4.89,1.58 -8.09,2.01 -3.2,0.43 -6.35,0.65 -9.44,0.65 -6.79,0 -12.16,-2.19 -16.12,-6.58 -3.95,-4.39 -5.93,-10.69 -5.93,-18.91 V 56.38 H 87.96 V 45.75 l 9.61,-0.52 6.89,-24.84 h 12.9 V 45.1 h 19.6 z"
         fill="#fff"
         id="path37"
         style="fill:#393b41;fill-opacity:1" />
    </g>
  </g>
</svg>
