<?xml version="1.0" encoding="UTF-8" standalone="no"?>
<!-- Created with Inkscape (http://www.inkscape.org/) -->

<svg
   width="79.374992mm"
   height="23.31476mm"
   viewBox="0 0 79.374992 23.31476"
   version="1.1"
   id="svg1"
   xml:space="preserve"
   xmlns:inkscape="http://www.inkscape.org/namespaces/inkscape"
   xmlns:sodipodi="http://sodipodi.sourceforge.net/DTD/sodipodi-0.dtd"
   xmlns="http://www.w3.org/2000/svg"
   xmlns:svg="http://www.w3.org/2000/svg"><sodipodi:namedview
     id="namedview1"
     pagecolor="#505050"
     bordercolor="#eeeeee"
     borderopacity="1"
     inkscape:showpageshadow="0"
     inkscape:pageopacity="0"
     inkscape:pagecheckerboard="0"
     inkscape:deskcolor="#505050"
     inkscape:document-units="mm" /><defs
     id="defs1" /><g
     inkscape:label="Layer 1"
     inkscape:groupmode="layer"
     id="layer1"
     transform="translate(-65.31801,-136.84262)"><g
       id="g1"
       transform="matrix(0.26458333,0,0,0.26458333,65.318015,136.84262)"><path
         fill="#231f20"
         fill-rule="nonzero"
         id="path22"
         d="m 0,0 v 88.11877 l 108.99686,-4e-4 c -0.84039,-0.59499 -1.6226,-1.22558 -2.32097,-1.89326 -6.2251,-6.01905 -6.3119,-13.01046 -6.48945,-19.56145 V 29.48827 h 19.91419 v 39.03551 c 0,2.65634 0.0907,5.39958 2.31208,7.52249 1.59894,1.68327 4.0008,2.30125 6.31092,2.30125 3.11203,0 5.1588,-1.15221 6.31485,-2.21129 2.30913,-2.21287 2.3979,-4.95611 2.3979,-7.61245 V 29.48827 h 20.00298 v 33.28152 c 0,7.16738 0,16.4632 -7.37819,23.45532 -0.70526,0.66058 -1.48352,1.29118 -2.32294,1.89326 h 29.82144 c -8.77885,-6.29848 -12.90393,-16.82304 -12.90393,-27.03186 0,-16.81712 11.29219,-33.90106 32.53796,-33.90106 9.51274,0 18.57964,3.36525 25.15981,10.0938 2.66818,2.74275 3.91301,4.86644 5.24463,7.34336 l -16.62262,8.23457 c -1.60286,-3.72016 -4.62418,-10.35767 -12.98186,-10.35767 -4.35588,0 -7.11185,2.0365 -8.44543,3.36437 -4.71201,4.51233 -4.71201,11.59391 -4.71201,14.07586 0,9.29109 3.47012,18.05583 13.24818,18.05583 9.2464,0 12.0024,-8.1452 12.71358,-10.2681 l 16.88992,8.14282 c -1.60092,3.00909 -3.11108,5.8415 -6.13139,8.84988 -1.29808,1.27058 -2.70273,2.39911 -4.18623,3.3982 h 18.26399 V 29.399 h 19.82245 v 46.15082 h 25.72501 V 88.11837 L 300,88.10876 V 0 H 1e-5"
         style="fill:#ffffff" /><path
         fill="#ffffff"
         fill-rule="nonzero"
         id="path24"
         d="m 90.1015,43.51408 c -0.03848,-0.0081 -10.72798,-2.30471 -10.72798,-2.30471 0,0 -10.70332,2.29969 -10.72403,2.30471 -0.05821,0.01154 -0.03848,0.06126 -0.03848,0.06126 l 0.14796,0.54839 0.03059,-7.9e-4 -0.0039,7.9e-4 c 0,0 0.16573,-0.02052 0.26241,0.13248 l 0.15981,0.88171 c 0,0 0.0039,0.06166 0.06707,0.06166 0.06612,0 0.3877,0 0.3877,0 h 19.42281 c 0,0 0.33739,0 0.39163,0 0.05427,0 0.0592,-0.04548 0.0592,-0.04548 l 0.16077,-0.88171 c 0.09176,-0.17263 0.27128,-0.14866 0.27128,-0.14866 l -0.0039,-7.9e-4 0.0266,7.9e-4 0.14896,-0.54839 c 0,0 0.02071,-0.04972 -0.03848,-0.06126"
         style="fill:#545454;fill-opacity:1" /><path
         fill="#ffffff"
         fill-rule="nonzero"
         id="path26"
         d="m 88.97987,45.4832 c 0.01183,0 0.02267,-0.0093 0.02267,-0.02427 v -0.27365 c 0,-0.01381 -0.01083,-0.0023 -0.02267,-0.0023 h -1.62968 c -0.01182,0 -0.02564,-0.01154 -0.02564,0.0023 v 0.27365 c 0,0.01499 0.01382,0.02427 0.02564,0.02427 l 0.06905,7.9e-4 c 0.03255,0 0.03453,0.03275 0.03453,0.06471 0,0.04084 0.01775,0.25274 0.16573,0.38068 0.02171,0.01854 0.0158,0.07053 -0.03059,0.07053 -0.0039,0 -0.04636,0 -0.05032,0 -0.0365,0 -0.03846,0.02506 -0.0266,0.04469 0.01281,0.02466 0.01675,0.09716 0.01675,0.1306 0,0.03433 0,0.0948 0,0.11907 0,0.02161 0.002,0.03897 0.02367,0.03897 0.002,0 0.0227,0 0.02467,0 0,0 0.01577,-0.002 0.01577,0.01736 0,0.01578 0,0.02347 0,0.02347 v 5.99406 c -0.01775,0.01845 -0.08086,0.08286 -0.08678,0.08739 -0.004,0.005 -0.0099,0.01273 -0.0099,0.022 v 0.1017 c 0,0.0074 -0.002,0.01736 -0.0079,0.02161 -0.0039,0.005 -0.01282,0.0073 -0.02269,0.0073 H 87.3906 c -0.01379,0 -0.02563,0.01194 -0.02563,0.02466 0,0 0,0.16692 0,0.17303 h 1.59713 c 0,-0.0061 0,-0.17303 0,-0.17303 0,-0.01272 -0.01086,-0.02466 -0.02269,-0.02466 h -0.07497 c -0.0099,0 -0.01778,-0.0023 -0.02368,-0.0073 -0.0039,-0.0042 -0.0069,-0.01421 -0.0069,-0.02161 v -0.1017 c 0,-0.0077 -0.002,-0.01391 -0.0099,-0.02121 -0.0099,-0.0081 -0.06213,-0.06165 -0.0868,-0.08819 v -5.99406 c 0,0 0,-0.0077 0,-0.02347 0,-0.01934 0.01577,-0.01736 0.01577,-0.01736 10e-4,0 0.02071,0 0.0227,0 0.02071,0 0.02467,-0.01736 0.02467,-0.03897 0,-0.02427 0,-0.08474 0,-0.11907 0,-0.03344 0.0059,-0.10594 0.01778,-0.1306 0.0138,-0.01963 0.0099,-0.04469 -0.02861,-0.04469 -0.002,0 -0.04636,0 -0.04834,0 -0.04636,0 -0.05229,-0.05238 -0.03256,-0.07053 0.14996,-0.12212 0.16573,-0.33481 0.16573,-0.37605 0,-0.0366 -0.002,-0.06935 0.03848,-0.06935 l 0.06709,-7.9e-4"
         style="fill:#545454;fill-opacity:1" /><path
         fill="#ffffff"
         fill-rule="nonzero"
         id="path28"
         d="m 85.466,45.4832 c 0.01086,0 0.02267,-0.0093 0.02267,-0.02427 v -0.27365 c 0,-0.01381 -0.01183,-0.0023 -0.02267,-0.0023 h -1.63264 c -0.01281,0 -0.02268,-0.01154 -0.02268,0.0023 v 0.27365 c 0,0.01499 0.0099,0.02427 0.02268,0.02427 l 0.07103,7.9e-4 c 0.03157,0 0.03354,0.03275 0.03354,0.06471 0,0.04084 0.01875,0.25274 0.16573,0.38068 0.02071,0.01854 0.01283,0.07053 -0.0296,0.07053 -0.0039,0 -0.04734,0 -0.04931,0 -0.03848,0 -0.04242,0.02506 -0.03156,0.04469 0.01577,0.02466 0.01775,0.09716 0.01775,0.1306 0,0.03433 0,0.0948 0,0.11907 0,0.02161 0.0039,0.03897 0.02466,0.03897 h 0.02367 c 0,0 0.01677,-0.002 0.01677,0.01736 0,0.01578 0.002,0.02347 0.002,0.02347 v 5.99406 c -0.01874,0.01845 -0.08482,0.08286 -0.08877,0.08739 -0.0049,0.005 -0.0089,0.01273 -0.0089,0.022 v 0.1017 c 0,0.0074 0,0.01736 -0.0079,0.02161 -0.0039,0.005 -0.01183,0.0073 -0.02171,0.0073 h -0.07693 c -0.01086,0 -0.02074,0.01194 -0.02074,0.02466 0,0 0,0.16692 0,0.17303 h 1.59319 c 0,-0.0061 0,-0.17303 0,-0.17303 0,-0.01272 -0.01186,-0.02466 -0.02271,-0.02466 h -0.07594 c -0.0089,0 -0.01875,-0.0023 -0.02271,-0.0073 -0.0059,-0.0042 -0.0079,-0.01421 -0.0079,-0.02161 v -0.1017 c 0,-0.0077 -0.002,-0.01391 -0.0099,-0.02121 -0.0069,-0.0081 -0.05917,-0.06165 -0.0868,-0.08819 v -5.99406 c 0,0 0,-0.0077 0,-0.02347 0,-0.01934 0.01775,-0.01736 0.01775,-0.01736 0.002,0 0.01973,0 0.02171,0 0.02074,0 0.02268,-0.01736 0.02268,-0.03897 0,-0.02427 0,-0.08474 0,-0.11907 0,-0.03344 0.0079,-0.10594 0.02074,-0.1306 0.0099,-0.01963 0.0059,-0.04469 -0.03058,-0.04469 -0.002,0 -0.0444,0 -0.04834,0 -0.04636,0 -0.0513,-0.05238 -0.03059,-0.07053 0.14994,-0.12212 0.16573,-0.33481 0.16573,-0.37605 0,-0.0366 -0.002,-0.06935 0.03651,-0.06935 l 0.07005,-7.9e-4"
         style="fill:#545454;fill-opacity:1" /><path
         fill="#ffffff"
         fill-rule="nonzero"
         id="path30"
         d="m 81.9492,45.4832 c 0.01379,0 0.02171,-0.0093 0.02171,-0.02427 v -0.27365 c 0,-0.01381 -0.0079,-0.0023 -0.02171,-0.0023 h -1.63165 c -0.01379,0 -0.02367,-0.01154 -0.02367,0.0023 v 0.27365 c 0,0.01499 0.0099,0.02427 0.02367,0.02427 l 0.07103,7.9e-4 c 0.03059,0 0.03256,0.03275 0.03256,0.06471 0,0.04084 0.01971,0.25274 0.16769,0.38068 0.01972,0.01854 0.01184,0.07053 -0.03059,0.07053 -0.0039,0 -0.04834,0 -0.05032,0 -0.03846,0 -0.04044,0.02506 -0.02859,0.04469 0.01283,0.02466 0.01675,0.09716 0.01675,0.1306 0,0.03433 0,0.0948 0,0.11907 0,0.02161 0.002,0.03897 0.02171,0.03897 0.002,0 0.02467,0 0.02663,0 0,0 0.01775,-0.002 0.01775,0.01736 0,0.01578 0,0.02347 0,0.02347 v 5.99406 c -0.01775,0.01845 -0.08285,0.08286 -0.08878,0.08739 -0.0059,0.005 -0.0099,0.01273 -0.0099,0.022 v 0.1017 c 0,0.0074 -0.002,0.01736 -0.0059,0.02161 -0.0059,0.005 -0.01479,0.0073 -0.02268,0.0073 h -0.07497 c -0.01183,0 -0.02367,0.01194 -0.02367,0.02466 0,0 0,0.16692 0,0.17303 h 1.59418 c 0,-0.0061 0,-0.17303 0,-0.17303 0,-0.01272 -0.01186,-0.02466 -0.02367,-0.02466 h -0.07497 c -0.0099,0 -0.01974,-0.0023 -0.02367,-0.0073 -0.003,-0.0042 -0.0069,-0.01421 -0.0069,-0.02161 v -0.1017 c 0,-0.0077 -0.002,-0.01391 -0.0079,-0.02121 -0.0098,-0.0081 -0.06015,-0.06165 -0.08877,-0.08819 v -5.99406 c 0,0 0,-0.0077 0,-0.02347 0,-0.01934 0.01775,-0.01736 0.01775,-0.01736 0.002,0 0.01874,0 0.01874,0 0.02564,0 0.02664,-0.01736 0.02664,-0.03897 0,-0.02427 0,-0.08474 0,-0.11907 0,-0.03344 0.0059,-0.10594 0.01974,-0.1306 0.0099,-0.01963 0.0099,-0.04469 -0.02861,-0.04469 -0.002,0 -0.04636,0 -0.0503,0 -0.04637,0 -0.05229,-0.05238 -0.02862,-0.07053 0.14796,-0.12212 0.16177,-0.33481 0.16177,-0.37605 0,-0.0366 0,-0.06935 0.03848,-0.06935 l 0.06905,-7.9e-4"
         style="fill:#545454;fill-opacity:1" /><path
         fill="#ffffff"
         fill-rule="nonzero"
         id="path32"
         d="m 78.4334,45.4832 c 0.01283,0 0.02269,-0.0093 0.02269,-0.02427 v -0.27365 c 0,-0.01381 -0.0099,-0.0023 -0.02269,-0.0023 h -1.63262 c -0.01281,0 -0.02071,-0.01154 -0.02071,0.0023 v 0.27365 c 0,0.01499 0.0079,0.02427 0.02071,0.02427 l 0.07004,7.9e-4 c 0.03255,0 0.03453,0.03275 0.03453,0.06471 0,0.04084 0.01875,0.25274 0.16769,0.38068 0.02071,0.01854 0.01086,0.07053 -0.03156,0.07053 -0.0029,0 -0.04736,0 -0.04933,0 -0.03846,0 -0.04044,0.02506 -0.02958,0.04469 0.0138,0.02466 0.01775,0.09716 0.01775,0.1306 0,0.03433 0,0.0948 0,0.11907 0,0.02161 0.002,0.03897 0.02467,0.03897 0,0 0.0217,0 0.02367,0 0,0 0.01677,-0.002 0.01677,0.01736 0,0.01578 0,0.02347 0,0.02347 v 5.99406 c -0.01677,0.01845 -0.08286,0.08286 -0.08779,0.08739 -0.0039,0.005 -0.0079,0.01273 -0.0079,0.022 v 0.1017 c 0,0.0074 -0.002,0.01736 -0.0079,0.02161 -0.0059,0.005 -0.01578,0.0073 -0.02368,0.0073 H 76.8432 c -0.01281,0 -0.02268,0.01194 -0.02268,0.02466 0,0 0,0.16692 0,0.17303 h 1.59318 c 0,-0.0061 0,-0.17303 0,-0.17303 0,-0.01272 -0.0099,-0.02466 -0.02267,-0.02466 h -0.07597 c -0.0089,0 -0.01678,-0.0023 -0.02267,-0.0073 -0.004,-0.0042 -0.0059,-0.01421 -0.0059,-0.02161 v -0.1017 c 0,-0.0077 -0.002,-0.01391 -0.0099,-0.02121 -0.0089,-0.0081 -0.06115,-0.06165 -0.08582,-0.08819 v -5.99406 c 0,0 -0.002,-0.0077 -0.002,-0.02347 0,-0.01934 0.01675,-0.01736 0.01675,-0.01736 0.002,0 0.0217,0 0.02368,0 0.01875,0 0.02269,-0.01736 0.02269,-0.03897 0,-0.02427 0,-0.08474 0,-0.11907 0,-0.03344 0.0059,-0.10594 0.01974,-0.1306 0.01083,-0.01963 0.0069,-0.04469 -0.02959,-0.04469 -0.0039,0 -0.04636,0 -0.04833,0 -0.04735,0 -0.05328,-0.05238 -0.03256,-0.07053 0.15092,-0.12212 0.16573,-0.33481 0.16573,-0.37605 0,-0.0366 -0.002,-0.06935 0.03651,-0.06935 l 0.07003,-7.9e-4"
         style="fill:#545454;fill-opacity:1" /><path
         fill="#ffffff"
         fill-rule="nonzero"
         id="path34"
         d="m 74.91659,45.4832 c 0.0138,0 0.02367,-0.0093 0.02367,-0.02427 v -0.27365 c 0,-0.01381 -0.0099,-0.0023 -0.02367,-0.0023 h -1.62968 c -0.0138,0 -0.02368,-0.01154 -0.02368,0.0023 v 0.27365 c 0,0.01499 0.0099,0.02427 0.02368,0.02427 l 0.06708,7.9e-4 c 0.03453,0 0.03651,0.03275 0.03651,0.06471 0,0.04084 0.01973,0.25274 0.16769,0.38068 0.01974,0.01854 0.01186,0.07053 -0.03255,0.07053 -0.002,0 -0.04834,0 -0.05032,0 -0.03847,0 -0.04044,0.02506 -0.02859,0.04469 0.0138,0.02466 0.01677,0.09716 0.01677,0.1306 0,0.03433 0,0.0948 0,0.11907 0,0.02161 0.002,0.03897 0.02565,0.03897 0.002,0 0.02071,0 0.02269,0 0,0 0.01774,-0.002 0.01774,0.01736 0,0.01578 0,0.02347 0,0.02347 v 5.99406 c -0.01774,0.01845 -0.08285,0.08286 -0.08678,0.08739 -0.0059,0.005 -0.0099,0.01273 -0.0099,0.022 v 0.1017 c 0,0.0074 -0.002,0.01736 -0.0079,0.02161 -0.0029,0.005 -0.01283,0.0073 -0.02269,0.0073 H 73.3293 c -0.01379,0 -0.02563,0.01194 -0.02563,0.02466 0,0 0,0.16692 0,0.17303 h 1.59416 c 0,-0.0061 0,-0.17303 0,-0.17303 0,-0.01272 -0.0099,-0.02466 -0.02171,-0.02466 h -0.07696 c -0.0079,0 -0.01579,-0.0023 -0.02071,-0.0073 -0.0059,-0.0042 -0.0079,-0.01421 -0.0079,-0.02161 v -0.1017 c 0,-0.0077 -0.002,-0.01391 -0.0099,-0.02121 -0.0079,-0.0081 -0.06213,-0.06165 -0.08876,-0.08819 v -5.99406 c 0,0 0,-0.0077 0,-0.02347 0,-0.01934 0.01775,-0.01736 0.01775,-0.01736 0.002,0 0.02071,0 0.02071,0 0.02367,0 0.02567,-0.01736 0.02567,-0.03897 0,-0.02427 0,-0.08474 0,-0.11907 0,-0.03344 0.0049,-0.10594 0.01875,-0.1306 0.0138,-0.01963 0.0098,-0.04469 -0.02862,-0.04469 -0.002,0 -0.04636,0 -0.05032,0 -0.04636,0 -0.05228,-0.05238 -0.03059,-0.07053 0.14996,-0.12212 0.16573,-0.33481 0.16573,-0.37605 0,-0.0366 -0.002,-0.06935 0.03651,-0.06935 l 0.06905,-7.9e-4"
         style="fill:#545454;fill-opacity:1" /><path
         fill="#ffffff"
         fill-rule="nonzero"
         id="path36"
         d="m 71.40078,45.4832 c 0.0128,0 0.02466,-0.0093 0.02466,-0.02427 v -0.27365 c 0,-0.01381 -0.01186,-0.0023 -0.02466,-0.0023 h -1.63066 c -0.01282,0 -0.02269,-0.01154 -0.02269,0.0023 v 0.27365 c 0,0.01499 0.0099,0.02427 0.02269,0.02427 l 0.07004,7.9e-4 c 0.03256,0 0.03455,0.03275 0.03455,0.06471 0,0.04084 0.01874,0.25274 0.16769,0.38068 0.01875,0.01854 0.01087,0.07053 -0.03156,0.07053 -0.0029,0 -0.04734,0 -0.05128,0 -0.03648,0 -0.03848,0.02506 -0.0276,0.04469 0.01379,0.02466 0.01578,0.09716 0.01578,0.1306 0,0.03433 0,0.0948 0,0.11907 0,0.02161 0.002,0.03897 0.02466,0.03897 h 0.02367 c 0,0 0.01675,-0.002 0.01675,0.01736 0,0.01578 0,0.02347 0,0.02347 v 5.99406 c -0.01675,0.01845 -0.08086,0.08286 -0.08581,0.08739 -0.0059,0.005 -0.0099,0.01273 -0.0099,0.022 v 0.1017 c 0,0.0074 -0.002,0.01736 -0.0059,0.02161 -0.0059,0.005 -0.01579,0.0073 -0.02368,0.0073 h -0.07497 c -0.01283,0 -0.02466,0.01194 -0.02466,0.02466 0,0 0,0.16692 0,0.17303 h 1.59515 c 0,-0.0061 0,-0.17303 0,-0.17303 0,-0.01272 -0.0099,-0.02466 -0.0227,-0.02466 h -0.07697 c -0.0079,0 -0.01775,-0.0023 -0.02168,-0.0073 -0.0059,-0.0042 -0.0079,-0.01421 -0.0079,-0.02161 v -0.1017 c 0,-0.0077 -0.002,-0.01391 -0.0079,-0.02121 -0.0089,-0.0081 -0.06313,-0.06165 -0.08781,-0.08819 v -5.99406 c 0,0 0,-0.0077 0,-0.02347 0,-0.01934 0.0148,-0.01736 0.0148,-0.01736 0.002,0 0.02171,0 0.02171,0 0.02269,0 0.02663,-0.01736 0.02663,-0.03897 0,-0.02427 0,-0.08474 0,-0.11907 0,-0.03344 0.004,-0.10594 0.01974,-0.1306 0.0089,-0.01963 0.0069,-0.04469 -0.02959,-0.04469 -0.0039,0 -0.04636,0 -0.04932,0 -0.04833,0 -0.05228,-0.05238 -0.03156,-0.07053 0.14896,-0.12212 0.16375,-0.33481 0.16375,-0.37605 0,-0.0366 -0.002,-0.06935 0.03848,-0.06935 l 0.06805,-7.9e-4"
         style="fill:#545454;fill-opacity:1" /><path
         fill="#ffffff"
         fill-rule="nonzero"
         id="path38"
         d="m 84.3651,39.1346 c 0,0 -0.13219,0 -0.16769,0 -0.0444,0 -0.04241,-0.0366 -0.04241,-0.0366 0,0 0,-0.14412 0,-0.18072 0,-0.04627 -0.0454,-0.04627 -0.0454,-0.04627 0,0 -0.12331,0 -0.16473,0 -0.04538,0 -0.0434,-0.04123 -0.0434,-0.04123 v -0.16682 c 0,0 0,-0.0366 -0.0424,-0.0366 -0.01579,0 -0.07204,0 -0.09866,0 -0.03452,0 -0.07104,-0.0289 -0.07301,-0.07664 -0.0059,-0.22778 0.07301,-1.83623 -0.77634,-3.00028 -0.66884,-0.99999 -1.59022,-1.50793 -2.09824,-1.7441 -0.0099,-0.21692 -0.31863,-0.299 -0.4528,-0.34606 -0.07201,-0.02387 -0.13316,-0.05238 -0.13316,-0.11561 0,-0.0035 -0.002,-0.07053 -0.002,-0.07399 0,-0.06737 0.06214,-0.09441 0.1539,-0.09174 0.02958,0.0012 0.05032,-0.02387 0.05032,-0.04232 V 32.9402 c 0,-0.02772 -0.02467,-0.0589 -0.06512,-0.0589 -0.06805,0 -0.145,-3.9e-4 -0.18347,-3.9e-4 -0.0444,0 -0.06512,-0.04005 -0.06512,-0.06443 0,-0.03965 0,-0.0219 0,-0.09786 0,-0.0574 -0.0444,-0.08977 -0.0789,-0.10673 v -1.20036 c 0,-0.04044 0.03056,-0.03502 0.05721,-0.03502 0.0039,0 0.0099,0 0.01382,-0.0016 h 0.0039 c 0.01482,0 0.02862,-0.01381 0.02862,-0.0293 v -0.11444 c 0,-0.01657 -0.01379,-0.02851 -0.02862,-0.02851 h -0.05424 c -0.01878,-0.0089 -0.03255,-0.03393 -0.03255,-0.0875 0,-0.05544 0.01675,-0.08168 0.04044,-0.08632 h 0.04636 c 0.01482,0 0.02862,-0.01273 0.02862,-0.02851 v -0.1163 c 0,-0.0151 -0.01379,-0.02822 -0.02862,-0.02822 h -0.06214 c -0.02663,-0.0038 -0.04636,-0.01539 -0.07299,-0.03659 -0.20421,-0.16179 -0.41037,-0.39499 -0.41037,-0.42962 0,-0.01894 0,-0.02003 0,-0.0432 0,-0.02466 -0.02467,-0.07359 -0.08089,-0.07359 -0.05424,0 -0.04636,-0.05623 -0.01775,-0.05623 0.01973,0 0.02367,-0.0054 0.02367,-0.03197 0,-0.01657 0,-0.04666 0,-0.07783 0,-0.03472 -0.10455,-0.17924 -0.10455,-0.17924 h -0.0069 c 0,0 -0.10654,0.14452 -0.10654,0.17924 0,0.03117 0,0.06126 0,0.07783 0,0.02654 0.0079,0.03197 0.02564,0.03197 0.02862,0 0.03652,0.05623 -0.01577,0.05623 -0.05624,0 -0.08089,0.04893 -0.08089,0.07359 0,0.02318 -0.002,0.02426 -0.002,0.0432 0,0.03463 -0.20615,0.26783 -0.41037,0.42962 -0.02665,0.02121 -0.04636,0.03275 -0.07301,0.03659 h -0.06213 c -0.01482,0 -0.02862,0.01312 -0.02862,0.02822 v 0.1163 c 0,0.01578 0.0138,0.02851 0.02862,0.02851 h 0.04833 c 0.02169,0.0046 0.03847,0.03088 0.03847,0.08632 0,0.05357 -0.01381,0.07862 -0.03257,0.0875 h -0.05423 c -0.01482,0 -0.02862,0.01194 -0.02862,0.02851 v 0.11444 c 0,0.01549 0.0138,0.0293 0.02862,0.0293 h 0.0039 c 0.0059,0.0016 0.0099,0.0016 0.01383,0.0016 0.02663,0 0.05917,-0.0054 0.05917,0.03502 v 1.20036 c -0.03451,0.01696 -0.08086,0.04933 -0.08086,0.10673 0,0.07596 0,0.05821 0,0.09786 0,0.02437 -0.02071,0.06443 -0.06512,0.06443 -0.03846,0 -0.11739,3.9e-4 -0.18349,3.9e-4 -0.04046,0 -0.06707,0.03118 -0.06707,0.0589 v 0.19542 c 0,0.01844 0.02269,0.04351 0.05029,0.04232 0.09274,-0.0027 0.15585,0.02437 0.15585,0.09174 0,0.0035 -0.002,0.07054 -0.002,0.07399 0,0.06323 -0.06313,0.09174 -0.13316,0.11561 -0.13417,0.04706 -0.44293,0.12914 -0.45084,0.34606 -0.50999,0.23617 -1.43335,0.74411 -2.09824,1.7441 -0.85133,1.16405 -0.77045,2.7725 -0.77834,3.00028 -0.002,0.04774 -0.03651,0.07664 -0.07299,0.07664 -0.02467,0 -0.08287,0 -0.09866,0 -0.04243,0 -0.04243,0.0366 -0.04243,0.0366 v 0.16682 c 0,0 0.002,0.04123 -0.04241,0.04123 -0.04241,0 -0.16671,0 -0.16671,0 0,0 -0.04243,0 -0.04243,0.04627 0,0.0366 0,0.18072 0,0.18072 0,0 0.002,0.0366 -0.04636,0.0366 -0.03352,0 -0.16769,0 -0.16769,0 0,0 -0.04636,0 -0.04636,0.04706 0,0.02732 0,0.13564 0,0.19463 0,0.0215 0.0138,0.02535 0.02861,0.02811 0.05031,0.0065 0.15192,0.05238 0.15192,0.16336 0,0.1896 0.11639,0.20765 0.16277,0.20765 v 0.7002 c 0,0.16297 -0.12725,0.22739 -0.19926,0.24475 -0.01479,0.0023 -0.03452,0.01923 -0.03452,0.03887 0,0.01854 0,0.72062 0,0.72062 l 4.91758,-1.08473 h 0.0069 l 4.91759,1.08473 c 0,0 0,-0.70208 0,-0.72062 0,-0.01964 -0.02171,-0.03661 -0.0365,-0.03887 -0.07201,-0.01736 -0.1973,-0.08178 -0.1973,-0.24475 v -0.7002 c 0.04636,0 0.16277,-0.01805 0.16277,-0.20765 0,-0.11098 0.1016,-0.15685 0.14994,-0.16336 0.01678,-0.0028 0.03059,-0.0066 0.03059,-0.02811 0,-0.05899 0,-0.16731 0,-0.19463 0,-0.04706 -0.04833,-0.04706 -0.04833,-0.04706"
         style="fill:#545454;fill-opacity:1" /><path
         fill="#ffffff"
         fill-rule="nonzero"
         id="path40"
         d="m 89.80456,54.85052 v -1.4373 h -0.84047 v -0.6278 H 69.7879 v 0.62661 h -0.84248 v 1.43612 h -0.84541 v 1.452 l 22.54996,0.0016 v -1.45121 h -0.84543"
         style="fill:#545454;fill-opacity:1" /></g></g></svg>
